<!DOCTYPE svg PUBLIC "-//W3C//DTD SVG 1.1//EN" "http://www.w3.org/Graphics/SVG/1.1/DTD/svg11.dtd">
<!-- Uploaded to: SVG Repo, www.svgrepo.com, Transformed by: SVG Repo Mixer Tools -->
<svg version="1.1" id="Layer_1" xmlns="http://www.w3.org/2000/svg" xmlns:xlink="http://www.w3.org/1999/xlink" viewBox="0 0 512 512" xml:space="preserve" width="167px" height="167px" fill="#0c1" stroke="#0c1">
<g id="SVGRepo_bgCarrier" stroke-width="0"/>
<g id="SVGRepo_tracerCarrier" stroke-linecap="round" stroke-linejoin="round"/>
<g id="SVGRepo_iconCarrier"> <circle style="fill:#ffffff;" cx="256" cy="256" r="256"/> <path d="M338.48,198.88h-164.8c-8.24,0-14.96-6.72-14.96-14.96V78.96c0-8.24,6.72-14.96,14.96-14.96h164.8 c8.24,0,14.96,6.72,14.96,14.96v104.88C353.52,192.08,346.8,198.88,338.48,198.88z"/> <polygon points="308.56,243.84 308.56,183.84 233.6,183.84 "/> <g> <rect x="248.56" y="108.96" style="fill:#FFFFFF;" width="14.96" height="14.96"/> <rect x="218.64" y="108.96" style="fill:#FFFFFF;" width="14.96" height="14.96"/> <rect x="188.64" y="108.96" style="fill:#FFFFFF;" width="14.96" height="14.96"/> <rect x="278.56" y="108.96" style="fill:#FFFFFF;" width="14.96" height="14.96"/> <rect x="308.56" y="108.96" style="fill:#FFFFFF;" width="14.96" height="14.96"/> <rect x="248.56" y="138.88" style="fill:#FFFFFF;" width="14.96" height="14.96"/> <rect x="278.56" y="138.88" style="fill:#FFFFFF;" width="14.96" height="14.96"/> <rect x="308.56" y="138.88" style="fill:#FFFFFF;" width="14.96" height="14.96"/> </g> <circle cx="344.4" cy="305.12" r="30.32"/> <path d="M396.72,402.72c0,0,0,1.44,0-26.88s-30.88-28.8-30.88-28.8h-42.96c0,0-30.88,0.32-30.88,28.8c0,28.32,0,26.88,0,26.88 H396.72z"/> <circle cx="167.76" cy="305.12" r="30.32"/> <path d="M220.16,402.72c0,0,0,1.44,0-26.88s-30.88-28.8-30.88-28.8h-42.96c0,0-30.88,0.32-30.88,28.8c0,28.32,0,26.88,0,26.88 H220.16z"/> </g>
</svg>